<mxfile host="app.diagrams.net" modified="2024-02-08T09:09:27.976Z" agent="Mozilla/5.0 (X11; Linux x86_64) AppleWebKit/537.36 (KHTML, like Gecko) Chrome/116.0.5845.1077 YaBrowser/23.9.1.1077 Yowser/2.5 Safari/537.36" version="23.1.1" etag="wJ3BbycU-VpKyxfk82V-" type="github">
  <diagram name="Страница — 1" id="p0IO3hduldUXJULuLBI2">
    <mxGraphModel>
      <root>
        <mxCell id="0" />
        <mxCell id="1" parent="0" />
      </root>
    </mxGraphModel>
  </diagram>
</mxfile>
